<?xml version="1.0" encoding="utf-8"?>
<!-- Generator: Adobe Illustrator 23.0.0, SVG Export Plug-In . SVG Version: 6.00 Build 0)  -->
<svg version="1.1" id="Capa_1" xmlns="http://www.w3.org/2000/svg" xmlns:xlink="http://www.w3.org/1999/xlink" x="0px" y="0px"
	 viewBox="0 0 512 512" style="enable-background:new 0 0 512 512;" xml:space="preserve">
<style type="text/css">
	.st0{fill:#EAD181;}
	.st1{fill:#DBBC3B;}
	.st2{fill:#E8C842;}
	.st3{fill:#777777;}
	.st4{fill:#727272;}
</style>
<path class="st0" d="M451.8,310.3L410,166.5h-3.6l7.7,161c0,25.1-21.5,45.6-47.8,45.6s-46.2-22.1-46.2-47.2v1.3
	c0,27.7-24.4,51.8-51.8,50.3c-25.4-1.4-45.1-29.8-45.1-55.9V321c0,13.4-5.8,32-14.9,40.3v0.9c-4.3,33.3,21.9,58.9,47.5,56.7l23.6-2
	l93.7-0.5c23.1-0.2,44.6-11.7,57.4-30.8l12.5-18.7C454.2,350.3,457.4,329.6,451.8,310.3z"/>
<path class="st1" d="M430.5,363.8c-12.9,19.2-34.3,30.8-57.4,30.8l-93.7,0.5l-23.6,2c-20.2,1.8-40.7-13.7-46.4-36.7
	c-0.4,0.4-0.7,0.7-1.1,1v0.9c-4.3,33.3,21.9,58.9,47.5,56.7l23.6-2l93.7-0.5c23.1-0.2,44.6-11.7,57.4-30.8L443,367
	c9.7-14.5,13.3-31.9,10.5-48.8C450.1,339.5,439.1,349.4,430.5,363.8z"/>
<path class="st0" d="M409.1,148.1c-2.1-42.3-61.8-55.9-82.7-19.5c-1.9,3.4-7.2,2.8-8.4-1c-6.2-20-24.8-34.7-46.7-34.7
	c-19.4,0-36.3,11.5-44.2,28c-3,6.2-11.7,7.1-16.3,1.9c-25.4-28.4-71.8-14.9-78.8,21.9c-1.1,5.8-8.1,9.3-12.7,5.1
	c-11.6-10.7-25.1-9.8-25-9.8c-20.3,0-36.9,16.6-36.9,36.9v144.5c0,20.3,16.6,36.9,36.9,36.9l0,0c20.3,0,36.9-16.6,36.9-36.9v9.4
	c0,24.4,18.9,45,43.2,46.2c26.1,1.4,48-19.7,48-45.5v0.6c0,26.1,20.2,48.2,46.3,49.5c28,1.4,51.4-21.1,51.4-48.7v-1.3
	c0,25.1,22,45.6,49,45.6s49-20.5,49-45.6L409.1,148.1z"/>
<g>
	<path class="st2" d="M104.4,141.4c-5.8-1.7-10.1-1.4-10-1.4c-20.3,0-36.9,16.6-36.9,36.9v144.5c0,24.3,23.3,42.2,46.9,35.5
		c-15.5-4.4-26.9-18.7-26.9-35.5V176.9C77.5,160.1,88.9,145.7,104.4,141.4z"/>
	<path class="st2" d="M379.1,376.2c-21.6-4.2-38-21.6-39-42.7V180.3c0-5.5-4.5-10-10-10s-10,4.5-10,10v153
		c0.4,10.3,4.6,19.8,11.3,27.3l0,0c2.3,2.6,5.5,5.4,8.8,7.7l0,0C351.8,376.2,365.9,378.8,379.1,376.2z"/>
	<path class="st2" d="M151.3,330.8v-9.4c0,0.2,0,0.3,0,0.5V197c0-5.5-4.5-10-10-10s-10,4.5-10,10v125c0-0.2,0-0.4,0-0.6v9.4
		c0,28.8,26.4,51.8,55.6,45.1C166.4,371.3,151.3,352.7,151.3,330.8z"/>
	<path class="st2" d="M242.7,335.8V172.3c0-5.5-4.5-10-10-10s-10,4.5-10,10v163.4c0.6,9.3,3.9,18,9,25.2l0,0
		c3,4.2,6.9,8.2,10.9,11.3l0,0c11.6,8.5,25.6,11.2,38.7,8.5C260.2,376.1,244.3,357.8,242.7,335.8z"/>
	<path class="st2" d="M138.2,128.9L138.2,128.9c-2.8,4.5-5,9.8-6.1,15.7l0,0c-0.9,4.4-4.6,7.2-8.3,7.1l0,0c0,0,10.1,7.1,22.1,0.2
		c5.2-3.3,6.3-8.5,6.5-8.7c4.2-18.5,18.5-30.8,34.7-34.5C168.6,104.5,148.6,112.4,138.2,128.9z"/>
	<path class="st2" d="M233.5,110.9L233.5,110.9c-2.1,2.6-4.1,5.6-5.7,8.7l0,0c-0.2,0.4-0.4,0.8-0.6,1.2c-1.6,3.4-4.8,5.1-8.2,5.3
		l0,0c0,0,10.4,4.9,20.3,1c6.1-2.8,8.9-8.3,8.9-8.3l0,0c6.7-12.6,18.8-22,33.2-24.9C263.7,90.2,245.2,96.5,233.5,110.9z"/>
	<path class="st2" d="M340.7,113.7L340.7,113.7c-2.2,1.4-4.6,3.2-6.4,4.8l0,0c-8.5,7.9-7.2,12.5-12.1,12.1l0,0
		c0.1,0,8.5,6.6,18.1,1.8c6.2-3,8.7-8.1,9.4-8.9c6.3-8.2,14.9-13.1,24.1-15.1C362.6,106.2,350.6,107.7,340.7,113.7z"/>
</g>
<path class="st3" d="M416,165.5l-0.9-17.7c-2.3-46.7-66.9-63.3-92.3-24.8c-7.8-21.4-28.6-36.1-51.5-36.1c-21,0-40.5,12.4-49.5,31.5
	c-1.1,2.3-4.6,2.6-6.4,0.5c-28.4-31.9-81.2-17.3-89.1,24.8c-0.2,1.3-1.8,2.6-2.7,1.8c-27.4-25.2-72.1-5.9-72.1,31.5v16.5
	c0,3.3,2.7,6,6,6s6-2.7,6-6V177c0-26.9,32.1-41,51.9-22.7c8.1,7.4,20.7,2,22.6-8.4c6.1-32.2,46.4-43.6,68.4-19
	c7.5,8.4,21.4,6.8,26.2-3.4c7.1-14.9,22.3-24.6,38.7-24.6c18.6,0,35.5,12.5,41,30.4c2.7,8.9,14.7,10.3,19.3,2.3
	c18.1-31.6,69.7-19,71.5,16.9l6.4,130.8c0.2,3.2,2.8,5.7,6,5.7c3.4,0,6.2-2.9,6-6.3l-3-61.4l27.6,94.8c5.1,17.7,2.2,36.5-8,51.8
	l-12.5,18.7c-11.7,17.6-31.3,28.1-52.5,28.2l-80.4,0.4c-3.3,0-6,2.7-6,6s2.7,6,6,6c1.4,0-11.8,0.1,80.4-0.4
	c25.1-0.2,48.4-12.7,62.4-33.6l12.5-18.7c12.2-18.2,15.7-40.7,9.6-61.7L416,165.5z"/>
<path class="st4" d="M128.1,347.9c10.5,31.2,46.2,44.1,73.7,28.8c0.3,13,5.8,25.5,15.4,34.6c18.5,17.6,39.1,13.7,48,13
	c3.3-0.3,5.8-3.2,5.4-6.5c-0.3-3.3-3.2-5.8-6.5-5.4c-4.1-0.3-22.8,5.4-38.7-9.7c-15.7-14.9-11-33.2-11.2-35.7
	c3-3.2,5.6-6.7,7.7-10.5c20.2,42.1,79.2,41.2,98.8-0.2c9.3,16.1,27.5,26.9,48.2,26.9c32.2,0,56.2-26,55-51.8l-1.2-24.7
	c-0.2-3.3-3-5.8-6.3-5.7c-3.3,0.2-5.8,3-5.7,6.3l1.2,24.5c-0.1,21.7-19.3,39.5-43,39.5s-43-17.7-43-39.6c0-0.1-1.6-157.8-1.6-157.9
	c0-3.3-2.7-5.9-6-5.9c-3.4,0-6,2.7-6,6.1l1.6,159.1c0,24.2-20.5,44.1-45.1,42.7c-22.8-1.2-40.6-20.3-40.6-43.5
	c0-1.4,0-1.3-2.5-165.7c-0.1-3.3-2.8-6-6.1-5.9s-5.9,2.8-5.9,6.1l2.5,165c0,22.6-19.1,40.7-41.7,39.5c-21-1.1-37.5-18.8-37.5-40.2
	c-1.2-150.6-1.1-136.6-1.1-137.6c0-3.4-2.9-6-6.1-5.9c-3.3,0-6,2.7-5.9,6.1l1.1,128c0,17-13.9,30.9-30.9,30.9
	c-17.1,0-30.9-13.9-30.9-30.9V221.3c0-3.3-2.7-6-6-6s-5.8,2.6-5.8,6v100.1C51.5,362,103,379.8,128.1,347.9z"/>
</svg>
