<?xml version="1.0" encoding="utf-8"?>
<!-- Generator: Adobe Illustrator 23.0.0, SVG Export Plug-In . SVG Version: 6.00 Build 0)  -->
<svg version="1.1" id="Capa_1" xmlns="http://www.w3.org/2000/svg" xmlns:xlink="http://www.w3.org/1999/xlink" x="0px" y="0px"
	 viewBox="0 0 512 512" style="enable-background:new 0 0 512 512;" xml:space="preserve">
<style type="text/css">
	.st0{fill:#FC3E81;}
	.st1{fill:#F01054;}
	.st2{fill:#FFDF46;}
	.st3{fill:#F9B200;}
	.st4{fill:#A7C7D3;}
	.st5{fill:#84A1C0;}
	.st6{fill:#FD82AC;}
	.st7{fill:#FD6096;}
	.st8{fill:#E29C6D;}
	.st9{fill:#EDB48A;}
	.st10{fill:#43A3F9;}
</style>
<path class="st0" d="M248.5,194.2L97,278.1L248.5,362l151.5-83.9L248.5,194.2z"/>
<path class="st1" d="M399.9,278.1L248.5,362L97,278.1l19.3-10.7l132.2,73.2l132.2-73.2L399.9,278.1z"/>
<path class="st2" d="M381.7,133.2c0,30.3-10.1,58.3-27.2,80.6c-21.3,27.9-36.8,59.5-45.2,93.1c-2,7.9-3.6,15.9-4.8,24
	c-0.3,2.1-0.6,4.2-0.9,6.3H193.3c-0.3-2.1-0.5-4.2-0.8-6.3c-1.2-8.1-2.7-16.1-4.7-23.9c-8.2-33.4-23.4-64.8-44.7-92.4
	c-18.4-23.8-28.9-53.9-27.7-86.5c2.6-68.7,58-124.7,126.7-128C318.5-3.5,381.7,57.5,381.7,133.2z"/>
<path class="st3" d="M309.3,306.9c-2,7.9-3.6,15.9-4.8,24l-11.5,6.3h-38.5L309.3,306.9z"/>
<path class="st3" d="M187.7,307l54.7,30.3h-38.5l-11.4-6.3C191.2,322.9,189.7,314.9,187.7,307z"/>
<path class="st3" d="M381.7,133.2c0,30.3-10.1,58.2-27.2,80.6c-27.6,36.2-45.5,78.7-50.9,123.4H272c5.4-44.8,23.3-87.2,50.9-123.4
	c17.1-22.4,27.2-50.3,27.2-80.6C350,65,298.7,8.7,232.6,0.9c3.1-0.4,6.3-0.6,9.4-0.8C318.5-3.5,381.7,57.5,381.7,133.2z"/>
<path class="st4" d="M322.8,353.1v81.2c0,10.9-8.9,19.8-19.8,19.8H194c-10.9,0-19.8-8.9-19.8-19.8v-81.2c0-10.9,8.9-19.8,19.8-19.8
	h109C313.9,333.3,322.8,342.2,322.8,353.1z"/>
<path class="st5" d="M300.2,333.3L248.5,362l-51.8-28.7h38.5l13.2,7.3l13.2-7.3H300.2z"/>
<path d="M316.8,381.7H182.1c-4.3,0-7.8-3.5-7.8-7.8s3.5-7.8,7.8-7.8h134.7c4.3,0,7.7,3.5,7.7,7.8S321.1,381.7,316.8,381.7z"/>
<path d="M316.8,421.3H182.1c-4.3,0-7.8-3.5-7.8-7.8s3.5-7.8,7.8-7.8h134.7c4.3,0,7.7,3.5,7.7,7.8S321.1,421.3,316.8,421.3z"/>
<path class="st0" d="M325.8,152.5c1.3,3.8,2,7.9,2,12.1c0,20.6-16.7,37.4-37.4,37.4c-1.4,0-2.8-0.1-4.2-0.3
	c-1.8,10.6-11.1,18.7-22.3,18.7h-0.2c-8.5-0.1-15.3-7.1-15.3-15.6V57.1c0-3,1.1-5.9,3.2-8.1C258,42.2,267,38,277,38
	c17.6,0,32.1,13.1,34.5,30c18.6,7.3,31.8,25.4,31.8,46.6C343.3,129.8,336.5,143.4,325.8,152.5z"/>
<path class="st1" d="M286.2,209.6c-0.4,0-0.8,0-1.2-0.1c-8.8-1.4-16.9-5.4-23.6-11.7c-3.1-2.9-3.3-7.8-0.3-11
	c2.9-3.1,7.8-3.3,11-0.3c4.4,4.1,9.7,6.8,15.3,7.7c4.2,0.7,7.1,4.6,6.5,8.9C293.3,206.8,290,209.6,286.2,209.6z"/>
<path class="st1" d="M283.5,92.4c-1.5,1.7-3.6,2.5-5.7,2.5c-1.9,0-3.8-0.7-5.2-2c-5.9-5.4-13.7-7.8-21.6-6.7
	c-0.9,0.1-1.7,0.1-2.5-0.1V70.9c0.1,0,0.2,0,0.3-0.1c12.5-1.8,24.9,2.1,34.2,10.6C286.2,84.4,286.4,89.3,283.5,92.4z"/>
<path class="st6" d="M248.5,57.1V205c0,8.5-6.8,15.5-15.3,15.6H233c-11.2,0-20.4-8.1-22.3-18.7c-1.4,0.2-2.8,0.3-4.2,0.3
	c-20.6,0-37.4-16.7-37.4-37.4c0-4.2,0.7-8.3,2-12.1c-10.7-9.2-17.4-22.8-17.4-37.9c0-21.2,13.2-39.3,31.8-46.6
	c2.3-17,16.9-30,34.5-30c10,0,19,4.2,25.3,10.9C247.3,51.2,248.5,54.1,248.5,57.1z"/>
<path class="st7" d="M210.7,209.6c-3.8,0-7-2.7-7.6-6.6c-0.7-4.2,2.2-8.2,6.5-8.9c5.7-0.9,11-3.5,15.3-7.7c3.1-2.9,8-2.8,11,0.3
	c2.9,3.1,2.8,8-0.3,11c-6.6,6.3-14.8,10.3-23.6,11.7C211.5,209.5,211.1,209.6,210.7,209.6z"/>
<path class="st7" d="M248.5,70.9v15.2c-0.8,0.1-1.7,0.2-2.5,0.1c-7.8-1.1-15.7,1.3-21.6,6.7c-1.5,1.4-3.4,2-5.2,2
	c-2.1,0-4.2-0.8-5.7-2.5c-2.9-3.2-2.7-8.1,0.5-10.9c9.3-8.5,21.8-12.4,34.3-10.6C248.2,70.9,248.4,70.9,248.5,70.9z"/>
<path class="st1" d="M333.1,149.8c-5.5-14.5-17.8-25.1-32.5-28.2c-0.5-7.1-2.6-13.8-6.4-19.6c-2.3-3.6-7.1-4.6-10.7-2.3
	c-3.6,2.3-4.6,7.1-2.3,10.7c2.6,4.1,4,9,4,14.2c0,6.1-1.9,11.8-5.4,16.1c-2.7,3.3-2.2,8.2,1.2,10.9c1.4,1.2,3.2,1.7,4.9,1.7
	c2.3,0,4.5-1,6-2.9c3.1-3.9,5.5-8.4,6.9-13.2c8.8,2.5,16.4,9.3,19.8,18.2c1.2,3.1,4.1,5,7.2,5c0.9,0,1.8-0.2,2.8-0.5
	C332.6,158.3,334.6,153.8,333.1,149.8z"/>
<path class="st7" d="M211.8,124.5c0-5.2,1.4-10.1,4-14.1c2.3-3.6,1.3-8.4-2.3-10.7s-8.4-1.3-10.7,2.3c-3.7,5.8-5.9,12.5-6.4,19.6
	c-14.7,3.2-27,13.8-32.5,28.2c-1.5,4,0.5,8.5,4.5,10c0.9,0.3,1.8,0.5,2.8,0.5c3.1,0,6.1-1.9,7.2-5c3.4-8.9,11-15.8,19.8-18.2
	c1.5,4.9,3.8,9.4,6.9,13.2c1.5,1.9,3.8,2.9,6,2.9c1.7,0,3.4-0.6,4.9-1.7c3.3-2.7,3.9-7.6,1.2-10.9
	C213.7,136.3,211.8,130.6,211.8,124.5z"/>
<path class="st8" d="M399.9,278.1v145.4c0,3.8-2,7.2-5.3,9l-141.1,78.2c0,0,0,0,0,0c-1.5,0.9-3.2,1.3-5,1.3V362L399.9,278.1z"/>
<path class="st9" d="M248.5,362v150c-1.7,0-3.3-0.4-4.8-1.2c-0.1,0-0.1-0.1-0.2-0.1l-141.1-78.2c-3.3-1.8-5.3-5.3-5.3-9V278.1
	L248.5,362z"/>
<path class="st9" d="M431.7,352.9l-133.6,74c-4.9,2.7-11,1-13.8-3.8L248.5,362l151.5-83.9l35.6,60.7
	C438.4,343.7,436.7,350.1,431.7,352.9z"/>
<path class="st8" d="M65.3,352.9l133.6,74c4.9,2.7,11,1,13.8-3.8l35.8-61.1L97,278.1l-35.6,60.7C58.5,343.7,60.2,350.1,65.3,352.9z"
	/>
<path class="st10" d="M407.6,86.9c-3.4,0-6.5-2.2-7.4-5.6c-1.2-4.1,1.2-8.4,5.3-9.6l7.9-2.3c4.1-1.2,8.4,1.2,9.6,5.3
	c1.2,4.1-1.2,8.4-5.3,9.6l-7.9,2.3C409,86.8,408.3,86.9,407.6,86.9z"/>
<path class="st10" d="M398.7,69c-1.9,0-3.9-0.7-5.4-2.2c-3.1-3-3.2-7.9-0.2-11l5.7-5.9c3-3.1,7.9-3.2,11-0.2c3.1,3,3.2,7.9,0.2,11
	l-5.7,5.9C402.8,68.2,400.7,69,398.7,69z"/>
<path class="st10" d="M417.7,108.8c-0.6,0-1.2-0.1-1.9-0.2l-8-2c-4.2-1-6.7-5.2-5.7-9.4c1-4.2,5.2-6.7,9.4-5.7l8,2
	c4.2,1,6.7,5.2,5.7,9.4C424.3,106.5,421.1,108.8,417.7,108.8z"/>
<path class="st10" d="M402.6,200.9c-2.7-2-4-5.6-2.8-8.9c1.4-4,5.9-6.1,9.9-4.7l7.8,2.8c4,1.4,6.1,5.9,4.7,9.9
	c-1.4,4-5.9,6.1-9.9,4.7l-7.8-2.8C403.8,201.7,403.2,201.3,402.6,200.9z"/>
<path class="st10" d="M405.9,181.2c-1.6-1.1-2.7-2.8-3.1-4.9c-0.8-4.2,2-8.2,6.2-9l8.1-1.5c4.2-0.8,8.2,2,9,6.2c0.8,4.2-2,8.2-6.2,9
	l-8.1,1.5C409.6,182.9,407.5,182.4,405.9,181.2z"/>
<path class="st10" d="M397.9,224.6c-0.5-0.4-1-0.8-1.4-1.3l-5.3-6.3c-2.8-3.3-2.4-8.2,0.9-10.9c3.3-2.8,8.2-2.4,10.9,0.9l5.3,6.3
	c2.8,3.3,2.4,8.2-0.9,10.9C404.7,226.5,400.8,226.6,397.9,224.6z"/>
<path class="st10" d="M87.2,203.1c3.1-2.1,4.8-5.8,3.8-9.3c-1.2-4.2-5.7-6.3-10.2-4.7l-8.6,3c-4.5,1.5-7.2,6.2-6,10.3
	c1.2,4.2,5.7,6.3,10.2,4.7l8.6-3C85.8,203.9,86.6,203.5,87.2,203.1z"/>
<path class="st10" d="M85.6,182.6c1.8-1.2,3.2-3,3.8-5.1c1.2-4.4-1.4-8.5-5.9-9.3l-8.6-1.4c-4.5-0.7-9.1,2.2-10.3,6.6
	c-1.2,4.4,1.4,8.5,5.9,9.3l8.6,1.4C81.3,184.5,83.7,183.9,85.6,182.6z"/>
<path class="st10" d="M90,227.5c0.6-0.4,1.1-0.8,1.6-1.3l6.3-6.6c3.3-3.4,3.3-8.5,0.1-11.3c-3.3-2.8-8.6-2.3-11.8,1.1l-6.3,6.6
	c-3.3,3.4-3.3,8.5-0.1,11.3C82.5,229.6,86.8,229.6,90,227.5z"/>
<path class="st10" d="M80.8,84.5c3.7,0.5,7.5-1.1,9-4.3c1.9-3.9-0.1-8.5-4.5-10.3l-8.4-3.5c-4.4-1.8-9.5-0.2-11.4,3.7
	c-1.9,3.9,0.1,8.5,4.5,10.3l8.4,3.5C79.2,84.2,80,84.4,80.8,84.5z"/>
<path class="st10" d="M93.2,68.2c2.1,0.3,4.4-0.1,6.2-1.3c3.8-2.4,4.6-7.3,1.8-10.8l-5.4-6.8c-2.8-3.5-8.2-4.4-12.1-2
	c-3.8,2.4-4.6,7.3-1.8,10.8l5.4,6.8C88.8,66.8,90.9,67.9,93.2,68.2z"/>
<path class="st10" d="M66.5,104.6c0.7,0.1,1.4,0.1,2.1,0.1l9.1-0.7c4.7-0.3,8.1-4.1,7.6-8.4c-0.5-4.3-4.8-7.5-9.5-7.1l-9.1,0.7
	c-4.7,0.3-8.1,4.1-7.6,8.4C59.5,101.2,62.7,104,66.5,104.6z"/>
</svg>
